<svg xmlns="http://www.w3.org/2000/svg" xmlns:xlink="http://www.w3.org/1999/xlink" width="500" zoomAndPan="magnify" viewBox="0 0 375 374.999991" height="500" preserveAspectRatio="xMidYMid meet" version="1.0"><defs><g/><clipPath id="15fba8b94e"><path d="M 9 104 L 368 104 L 368 259 L 9 259 Z M 9 104 " clip-rule="nonzero"/></clipPath><clipPath id="a2f3e2d950"><path d="M 359.367188 79.433594 L 375.023438 250.46875 L 15.773438 283.347656 L 0.117188 112.3125 Z M 359.367188 79.433594 " clip-rule="nonzero"/></clipPath><clipPath id="aa773f7e52"><path d="M 359.367188 79.433594 L 375.023438 250.46875 L 15.773438 283.347656 L 0.117188 112.3125 Z M 359.367188 79.433594 " clip-rule="nonzero"/></clipPath><clipPath id="8d55834156"><path d="M 224.335938 134.257812 L 320.335938 134.257812 L 320.335938 206.257812 L 224.335938 206.257812 Z M 224.335938 134.257812 " clip-rule="nonzero"/></clipPath><clipPath id="b1a63ebcc6"><path d="M 0.675781 0.261719 L 96.335938 0.261719 L 96.335938 72.027344 L 0.675781 72.027344 Z M 0.675781 0.261719 " clip-rule="nonzero"/></clipPath><clipPath id="f721f75a8d"><rect x="0" width="97" y="0" height="73"/></clipPath><clipPath id="a1cbddc822"><path d="M 51.191406 145.34375 L 147.191406 145.34375 L 147.191406 217.113281 L 51.191406 217.113281 Z M 51.191406 145.34375 " clip-rule="nonzero"/></clipPath><clipPath id="8b8dc91ba4"><path d="M 0.238281 3 L 16 3 L 16 31 L 0.238281 31 Z M 0.238281 3 " clip-rule="nonzero"/></clipPath><clipPath id="debd505cf5"><rect x="0" width="63" y="0" height="33"/></clipPath></defs><g clip-path="url(#15fba8b94e)"><g clip-path="url(#a2f3e2d950)"><g clip-path="url(#aa773f7e52)"><path fill="#fed012" d="M 212.371094 167 C 211.242188 167.828125 210.105469 168.632812 208.960938 169.425781 C 227.226562 183.023438 242.457031 205.265625 265.269531 210.511719 C 284.113281 211.042969 311.421875 217.890625 318.960938 194.46875 C 321.660156 178.75 324.121094 158.09375 307.917969 148.902344 C 293.128906 135.929688 282.367188 134.605469 263.308594 135.511719 C 255.382812 135.238281 249.199219 139.394531 243.164062 144.011719 C 232.851562 151.613281 222.109375 158.640625 212.371094 167 Z M 51.21875 194.871094 C 51.074219 216.011719 62.382812 226.488281 82.949219 228.625 C 96.265625 228 109.179688 221.566406 121.496094 216.6875 C 137.871094 206.28125 148.210938 188.644531 160.238281 173.808594 C 150.503906 150.558594 119.601562 150.566406 98.21875 152.972656 C 86.460938 154.335938 74.515625 155.730469 65.351562 163.988281 C 53.355469 171.523438 49.957031 181.066406 51.21875 194.871094 Z M 9.515625 190 C 10.398438 150.632812 48.429688 107.882812 89.253906 110.164062 C 108.078125 111.207031 124.578125 119.890625 138.976562 131.496094 C 153.640625 133.679688 167.277344 139.53125 179.585938 147.683594 C 191.101562 131.355469 206.183594 117.925781 225.230469 111.15625 C 248.617188 105.457031 273.464844 101.339844 297.355469 106.375 C 317.917969 110.347656 351.15625 135.636719 358.554688 155.191406 C 360.527344 167.082031 368.132812 177.527344 367.808594 190 C 367.21875 241.6875 311.234375 255.957031 268.609375 251.632812 C 249.664062 250.921875 233.273438 241.257812 218.132812 230.6875 C 205.894531 222.515625 193.019531 214.648438 184.0625 202.691406 C 161.804688 239.902344 118.109375 261.964844 74.925781 258.027344 C 39.246094 257.320312 10.515625 224.859375 9.515625 190 " fill-opacity="1" fill-rule="nonzero"/></g></g></g><g clip-path="url(#8d55834156)"><g transform="matrix(1, 0, 0, 1, 224, 134)"><g clip-path="url(#f721f75a8d)"><g clip-path="url(#b1a63ebcc6)"><path fill="#ffffff" d="M 6.714844 45.285156 C 8.066406 46.316406 9.46875 47.253906 10.914062 48.144531 C 13.777344 49.914062 16.773438 51.292969 19.839844 52.660156 C 25.882812 55.347656 32.109375 57.332031 38.6875 58.179688 C 51.328125 59.8125 64.546875 58.53125 75.941406 52.496094 C 82.125 49.21875 87.878906 44.949219 92.546875 39.722656 C 90.503906 37.179688 88.386719 34.796875 85.84375 32.710938 C 83.070312 30.4375 80.128906 28.296875 77.203125 26.222656 C 71.078125 21.878906 64.414062 18.234375 57.097656 16.398438 C 42.957031 12.851562 27.546875 16.898438 16.417969 26.140625 C 10.957031 30.679688 6.378906 36.289062 3.023438 42.550781 C 4.199219 43.515625 5.503906 44.359375 6.714844 45.285156 Z M 0.453125 42.792969 C 2.847656 37.808594 5.933594 33.246094 9.59375 29.234375 C 9.410156 28.996094 9.234375 28.757812 9.050781 28.519531 C 8.902344 28.324219 8.753906 28.128906 8.601562 27.933594 C 8.527344 27.839844 8.453125 27.742188 8.378906 27.644531 C 8.367188 27.632812 8.207031 27.421875 8.296875 27.539062 C 7.628906 26.675781 6.976562 25.800781 6.3125 24.933594 C 5.101562 23.355469 3.933594 21.746094 2.71875 20.167969 C 2.253906 19.558594 2.574219 18.597656 3.117188 18.179688 C 3.671875 17.75 4.652344 17.703125 5.140625 18.300781 C 6.445312 19.902344 7.769531 21.496094 9.03125 23.132812 C 9.980469 24.363281 10.972656 25.589844 11.875 26.863281 C 15.527344 23.3125 19.671875 20.28125 24.214844 17.890625 C 23.464844 16.546875 22.84375 15.109375 22.136719 13.742188 C 21.363281 12.238281 20.578125 10.738281 19.785156 9.242188 C 19.417969 8.542969 19.585938 7.566406 20.328125 7.175781 C 21.035156 6.800781 21.992188 6.976562 22.394531 7.71875 C 23.203125 9.203125 24.019531 10.683594 24.839844 12.160156 C 25.632812 13.582031 26.546875 14.964844 27.269531 16.417969 C 28.636719 15.808594 30.03125 15.242188 31.460938 14.746094 C 34.867188 13.570312 38.398438 12.8125 41.96875 12.441406 C 41.710938 10.867188 41.570312 9.257812 41.359375 7.683594 C 41.109375 5.820312 40.839844 3.957031 40.5625 2.09375 C 40.449219 1.316406 40.757812 0.53125 41.578125 0.304688 C 42.273438 0.113281 43.234375 0.542969 43.367188 1.320312 C 43.691406 3.269531 44.03125 5.214844 44.386719 7.160156 C 44.691406 8.835938 45.066406 10.515625 45.308594 12.207031 C 48.359375 12.097656 51.421875 12.265625 54.449219 12.703125 C 56.671875 13.023438 58.863281 13.542969 61.015625 14.210938 C 61.0625 14.074219 61.109375 13.941406 61.148438 13.808594 C 61.296875 13.335938 61.445312 12.863281 61.601562 12.390625 C 61.902344 11.476562 62.234375 10.578125 62.585938 9.683594 C 63.304688 7.863281 64.042969 6.046875 64.789062 4.238281 C 65.085938 3.519531 65.746094 3.003906 66.566406 3.230469 C 67.265625 3.421875 67.851562 4.273438 67.574219 5.007812 C 66.878906 6.867188 66.238281 8.742188 65.644531 10.636719 C 65.347656 11.585938 65.042969 12.53125 64.722656 13.472656 C 64.523438 14.058594 64.347656 14.683594 64.144531 15.292969 C 68.417969 16.929688 72.503906 19.121094 76.316406 21.550781 C 76.445312 21.628906 76.570312 21.714844 76.699219 21.796875 C 76.976562 21.410156 77.242188 21 77.523438 20.605469 C 78.054688 19.859375 78.585938 19.117188 79.125 18.371094 C 80.195312 16.882812 81.246094 15.386719 82.300781 13.882812 C 82.734375 13.265625 83.527344 12.976562 84.21875 13.378906 C 84.839844 13.742188 85.152344 14.671875 84.722656 15.300781 C 83.675781 16.835938 82.632812 18.375 81.601562 19.925781 C 81.097656 20.6875 80.589844 21.449219 80.082031 22.207031 C 79.796875 22.628906 79.492188 23.050781 79.203125 23.480469 C 81.734375 25.269531 84.125 27.226562 86.269531 29.492188 C 86.6875 29.929688 87.089844 30.378906 87.496094 30.820312 C 89.773438 28.769531 92.003906 26.648438 94.148438 24.457031 C 94.695312 23.902344 95.710938 23.871094 96.253906 24.457031 C 96.804688 25.058594 96.828125 25.960938 96.253906 26.558594 C 95.105469 27.746094 93.9375 28.910156 92.742188 30.050781 C 91.679688 31.058594 90.566406 32.011719 89.445312 32.957031 C 89.796875 33.34375 90.140625 33.730469 90.496094 34.113281 C 91.988281 35.730469 93.496094 37.296875 94.875 39.015625 C 94.9375 39.09375 94.984375 39.171875 95.023438 39.253906 C 96.066406 39.886719 96.671875 41.398438 95.597656 42.570312 C 91.621094 46.902344 87.011719 50.710938 81.886719 53.609375 C 82.070312 53.988281 82.234375 54.375 82.394531 54.746094 C 82.722656 55.507812 83.035156 56.269531 83.320312 57.050781 C 83.558594 57.710938 83.753906 58.382812 84.003906 59.039062 C 84.265625 59.71875 84.542969 60.394531 84.800781 61.078125 C 85.125 61.941406 84.441406 63.042969 83.570312 63.242188 C 82.570312 63.46875 81.753906 62.9375 81.40625 62.011719 C 81.277344 61.671875 81.148438 61.332031 81.015625 60.992188 C 80.953125 60.832031 80.886719 60.675781 80.824219 60.515625 C 80.808594 60.472656 80.792969 60.433594 80.773438 60.390625 C 80.769531 60.386719 80.753906 60.347656 80.71875 60.265625 C 80.429688 59.652344 80.089844 59.066406 79.765625 58.46875 C 79.242188 57.496094 78.660156 56.527344 78.167969 55.527344 C 74.339844 57.34375 70.359375 58.867188 66.277344 60.019531 C 66.351562 60.324219 66.425781 60.625 66.503906 60.917969 C 66.714844 61.707031 66.898438 62.5 67.066406 63.300781 C 67.398438 64.867188 67.738281 66.433594 68.097656 67.996094 C 68.3125 68.933594 67.808594 70.039062 66.808594 70.265625 C 65.851562 70.484375 64.78125 69.980469 64.535156 68.976562 C 64.152344 67.417969 63.714844 65.886719 63.234375 64.355469 C 62.996094 63.605469 62.757812 62.859375 62.542969 62.101562 C 62.445312 61.746094 62.328125 61.390625 62.222656 61.027344 C 61.867188 61.105469 61.515625 61.191406 61.160156 61.261719 C 57.699219 61.957031 54.175781 62.390625 50.640625 62.523438 C 50.636719 62.640625 50.632812 62.761719 50.625 62.878906 C 50.609375 63.230469 50.59375 63.582031 50.578125 63.933594 C 50.546875 64.667969 50.460938 65.394531 50.386719 66.125 C 50.238281 67.582031 50.210938 69.054688 50.160156 70.515625 C 50.132812 71.304688 49.484375 72.0625 48.648438 72.027344 C 47.84375 71.992188 47.121094 71.363281 47.136719 70.515625 C 47.167969 69.054688 47.222656 67.585938 47.15625 66.125 C 47.125 65.425781 47.074219 64.722656 47.082031 64.019531 C 47.085938 63.667969 47.089844 63.316406 47.09375 62.964844 C 47.09375 62.824219 47.097656 62.683594 47.097656 62.542969 C 44.933594 62.496094 42.773438 62.34375 40.625 62.046875 C 38.480469 61.75 36.347656 61.335938 34.234375 60.847656 C 34.171875 60.996094 34.09375 61.132812 33.996094 61.261719 C 33.980469 61.304688 33.96875 61.351562 33.953125 61.394531 C 33.8125 61.851562 33.660156 62.289062 33.464844 62.726562 C 33.1875 63.359375 33.035156 63.828125 32.757812 64.585938 C 32.242188 66.015625 31.734375 67.449219 31.21875 68.878906 C 30.980469 69.539062 30.292969 70.054688 29.5625 69.816406 C 28.90625 69.605469 28.375 68.875 28.621094 68.164062 C 29.121094 66.726562 29.574219 65.285156 29.957031 63.8125 C 30.148438 63.085938 30.335938 62.371094 30.445312 61.628906 C 30.5 61.242188 30.59375 60.871094 30.6875 60.496094 C 30.699219 60.449219 30.710938 60.402344 30.722656 60.355469 C 30.707031 60.21875 30.707031 60.085938 30.722656 59.953125 C 27.316406 58.996094 23.976562 57.816406 20.722656 56.457031 C 19.609375 55.992188 18.519531 55.476562 17.445312 54.929688 C 17.171875 55.476562 16.921875 56.039062 16.65625 56.59375 C 16.351562 57.230469 16.003906 57.839844 15.660156 58.457031 C 14.964844 59.714844 14.292969 60.988281 13.5625 62.226562 C 13.203125 62.835938 12.324219 63.109375 11.710938 62.710938 C 11.085938 62.308594 10.851562 61.519531 11.222656 60.859375 C 11.910156 59.636719 12.578125 58.398438 13.128906 57.105469 C 13.15625 57.039062 13.234375 56.84375 13.246094 56.8125 C 13.308594 56.652344 13.367188 56.496094 13.425781 56.335938 C 13.546875 56.019531 13.679688 55.707031 13.808594 55.394531 C 14.078125 54.730469 14.363281 54.058594 14.558594 53.371094 C 13.171875 52.578125 11.800781 51.746094 10.441406 50.902344 C 8.769531 49.871094 7.144531 48.761719 5.511719 47.660156 C 4.054688 46.675781 2.785156 45.527344 1.433594 44.425781 C 0.746094 44.390625 0.0507812 43.628906 0.453125 42.792969 " fill-opacity="1" fill-rule="nonzero"/></g><path fill="#ffffff" d="M 37.625 40.476562 C 38.464844 42.992188 40.414062 45.019531 42.71875 46.261719 C 45.199219 47.601562 48.328125 48.035156 50.910156 46.703125 C 53.464844 45.386719 55.203125 42.875 56.089844 40.191406 C 56.929688 37.65625 57.039062 34.757812 55.832031 32.3125 C 54.765625 30.160156 52.84375 28.386719 50.523438 27.683594 C 45.117188 26.050781 38.644531 29.617188 37.230469 34.972656 C 36.894531 36.796875 37.039062 38.710938 37.625 40.476562 Z M 34.355469 32.539062 C 35.882812 28.332031 39.214844 25.21875 43.609375 24.203125 C 44.359375 24.03125 45.128906 23.902344 45.90625 23.820312 C 46.679688 23.691406 47.457031 23.59375 48.230469 23.542969 C 52.117188 23.292969 55.691406 25.242188 57.964844 28.308594 C 60.226562 31.355469 61.011719 35.03125 60.433594 38.761719 C 59.855469 42.503906 57.773438 46.082031 54.871094 48.507812 C 51.582031 51.261719 47.308594 51.980469 43.230469 50.65625 C 35.84375 48.261719 31.695312 39.867188 34.355469 32.539062 " fill-opacity="1" fill-rule="nonzero"/></g></g></g><g clip-path="url(#a1cbddc822)"><path fill="#ffffff" d="M 141.152344 190.367188 C 139.800781 191.398438 138.398438 192.335938 136.953125 193.230469 C 134.089844 195 131.09375 196.378906 128.027344 197.746094 C 121.984375 200.433594 115.757812 202.414062 109.179688 203.265625 C 96.539062 204.894531 83.316406 203.617188 71.925781 197.582031 C 65.742188 194.304688 59.988281 190.035156 55.320312 184.808594 C 57.363281 182.265625 59.480469 179.878906 62.023438 177.796875 C 64.792969 175.523438 67.738281 173.382812 70.664062 171.308594 C 76.789062 166.964844 83.453125 163.320312 90.769531 161.484375 C 104.910156 157.9375 120.320312 161.980469 131.445312 171.226562 C 136.910156 175.765625 141.488281 181.375 144.84375 187.632812 C 143.667969 188.601562 142.363281 189.445312 141.152344 190.367188 Z M 147.414062 187.878906 C 145.019531 182.894531 141.929688 178.332031 138.273438 174.320312 C 138.453125 174.082031 138.632812 173.84375 138.816406 173.605469 C 138.964844 173.410156 139.113281 173.214844 139.265625 173.019531 C 139.339844 172.921875 139.414062 172.824219 139.488281 172.726562 C 139.5 172.714844 139.660156 172.503906 139.570312 172.621094 C 140.238281 171.757812 140.890625 170.886719 141.554688 170.019531 C 142.765625 168.441406 143.933594 166.828125 145.144531 165.253906 C 145.613281 164.644531 145.292969 163.683594 144.75 163.265625 C 144.195312 162.835938 143.210938 162.789062 142.726562 163.386719 C 141.421875 164.988281 140.097656 166.582031 138.832031 168.21875 C 137.886719 169.449219 136.890625 170.671875 135.992188 171.949219 C 132.335938 168.398438 128.195312 165.363281 123.648438 162.972656 C 124.402344 161.628906 125.023438 160.195312 125.730469 158.828125 C 126.503906 157.324219 127.289062 155.824219 128.082031 154.328125 C 128.449219 153.628906 128.28125 152.652344 127.539062 152.261719 C 126.832031 151.886719 125.875 152.0625 125.472656 152.800781 C 124.664062 154.289062 123.847656 155.769531 123.027344 157.246094 C 122.234375 158.667969 121.320312 160.050781 120.597656 161.503906 C 119.230469 160.894531 117.835938 160.328125 116.40625 159.832031 C 113 158.65625 109.46875 157.894531 105.898438 157.527344 C 106.15625 155.949219 106.296875 154.34375 106.507812 152.769531 C 106.757812 150.902344 107.027344 149.042969 107.304688 147.179688 C 107.417969 146.402344 107.109375 145.617188 106.289062 145.390625 C 105.59375 145.199219 104.632812 145.628906 104.5 146.40625 C 104.175781 148.355469 103.835938 150.300781 103.480469 152.246094 C 103.175781 153.921875 102.800781 155.601562 102.558594 157.292969 C 99.507812 157.183594 96.445312 157.351562 93.417969 157.789062 C 91.195312 158.109375 89.003906 158.628906 86.851562 159.296875 C 86.804688 159.160156 86.757812 159.027344 86.71875 158.894531 C 86.570312 158.421875 86.421875 157.945312 86.265625 157.476562 C 85.964844 156.5625 85.632812 155.664062 85.28125 154.769531 C 84.5625 152.949219 83.824219 151.132812 83.078125 149.324219 C 82.78125 148.601562 82.117188 148.089844 81.300781 148.316406 C 80.597656 148.507812 80.015625 149.359375 80.292969 150.09375 C 80.988281 151.953125 81.628906 153.828125 82.222656 155.722656 C 82.519531 156.671875 82.824219 157.613281 83.144531 158.554688 C 83.34375 159.144531 83.519531 159.769531 83.722656 160.378906 C 79.449219 162.015625 75.363281 164.207031 71.546875 166.632812 C 71.421875 166.714844 71.292969 166.800781 71.167969 166.882812 C 70.890625 166.496094 70.625 166.085938 70.34375 165.691406 C 69.8125 164.945312 69.277344 164.199219 68.742188 163.457031 C 67.671875 161.96875 66.617188 160.472656 65.566406 158.96875 C 65.132812 158.347656 64.339844 158.0625 63.648438 158.464844 C 63.027344 158.828125 62.714844 159.757812 63.144531 160.386719 C 64.191406 161.921875 65.234375 163.460938 66.261719 165.011719 C 66.769531 165.773438 67.277344 166.535156 67.785156 167.292969 C 68.070312 167.714844 68.375 168.136719 68.664062 168.566406 C 66.128906 170.351562 63.742188 172.3125 61.59375 174.578125 C 61.179688 175.015625 60.777344 175.460938 60.371094 175.90625 C 58.09375 173.855469 55.863281 171.730469 53.714844 169.542969 C 53.171875 168.988281 52.152344 168.957031 51.613281 169.542969 C 51.0625 170.144531 51.039062 171.046875 51.613281 171.644531 C 52.757812 172.832031 53.929688 173.996094 55.125 175.132812 C 56.183594 176.144531 57.300781 177.097656 58.421875 178.042969 C 58.070312 178.429688 57.726562 178.816406 57.371094 179.195312 C 55.878906 180.816406 54.371094 182.378906 52.992188 184.101562 C 52.929688 184.179688 52.882812 184.257812 52.839844 184.339844 C 51.800781 184.972656 51.191406 186.484375 52.269531 187.65625 C 56.246094 191.988281 60.855469 195.796875 65.980469 198.695312 C 65.796875 199.070312 65.632812 199.460938 65.472656 199.828125 C 65.144531 200.589844 64.832031 201.355469 64.546875 202.136719 C 64.308594 202.792969 64.113281 203.46875 63.863281 204.121094 C 63.601562 204.804688 63.324219 205.480469 63.066406 206.164062 C 62.738281 207.027344 63.425781 208.128906 64.292969 208.328125 C 65.296875 208.554688 66.113281 208.023438 66.460938 207.097656 C 66.589844 206.757812 66.71875 206.414062 66.851562 206.074219 C 66.914062 205.917969 66.976562 205.757812 67.042969 205.601562 C 67.058594 205.558594 67.074219 205.519531 67.09375 205.476562 C 67.09375 205.472656 67.113281 205.433594 67.148438 205.351562 C 67.4375 204.734375 67.777344 204.152344 68.097656 203.554688 C 68.625 202.582031 69.203125 201.613281 69.699219 200.609375 C 73.527344 202.429688 77.507812 203.949219 81.589844 205.105469 C 81.515625 205.40625 81.441406 205.710938 81.363281 206 C 81.148438 206.792969 80.96875 207.585938 80.800781 208.382812 C 80.46875 209.953125 80.128906 211.515625 79.769531 213.078125 C 79.554688 214.019531 80.058594 215.125 81.058594 215.351562 C 82.015625 215.570312 83.085938 215.066406 83.332031 214.0625 C 83.714844 212.503906 84.148438 210.96875 84.632812 209.441406 C 84.871094 208.691406 85.105469 207.945312 85.320312 207.1875 C 85.421875 206.832031 85.539062 206.472656 85.644531 206.113281 C 86 206.191406 86.351562 206.273438 86.703125 206.347656 C 90.167969 207.042969 93.691406 207.472656 97.222656 207.605469 C 97.230469 207.726562 97.234375 207.84375 97.242188 207.964844 C 97.257812 208.316406 97.273438 208.667969 97.289062 209.019531 C 97.320312 209.75 97.40625 210.480469 97.480469 211.210938 C 97.628906 212.667969 97.652344 214.136719 97.707031 215.601562 C 97.734375 216.390625 98.382812 217.148438 99.21875 217.113281 C 100.023438 217.074219 100.746094 216.445312 100.730469 215.601562 C 100.699219 214.140625 100.644531 212.671875 100.710938 211.210938 C 100.742188 210.511719 100.792969 209.808594 100.785156 209.105469 C 100.78125 208.753906 100.777344 208.402344 100.773438 208.050781 C 100.769531 207.910156 100.769531 207.769531 100.769531 207.628906 C 102.933594 207.582031 105.09375 207.429688 107.238281 207.132812 C 109.386719 206.832031 111.519531 206.421875 113.632812 205.933594 C 113.695312 206.082031 113.773438 206.21875 113.871094 206.34375 C 113.886719 206.390625 113.898438 206.433594 113.914062 206.480469 C 114.054688 206.9375 114.207031 207.375 114.398438 207.8125 C 114.679688 208.445312 114.832031 208.910156 115.105469 209.671875 C 115.625 211.101562 116.132812 212.53125 116.648438 213.964844 C 116.886719 214.625 117.574219 215.136719 118.304688 214.902344 C 118.960938 214.691406 119.492188 213.960938 119.246094 213.246094 C 118.746094 211.8125 118.292969 210.371094 117.910156 208.898438 C 117.71875 208.171875 117.53125 207.457031 117.421875 206.714844 C 117.367188 206.328125 117.273438 205.957031 117.175781 205.578125 C 117.164062 205.53125 117.152344 205.488281 117.140625 205.441406 C 117.15625 205.304688 117.160156 205.171875 117.144531 205.039062 C 120.546875 204.078125 123.890625 202.902344 127.140625 201.542969 C 128.257812 201.078125 129.347656 200.558594 130.421875 200.015625 C 130.695312 200.5625 130.945312 201.125 131.210938 201.679688 C 131.515625 202.316406 131.863281 202.925781 132.203125 203.542969 C 132.902344 204.800781 133.574219 206.074219 134.304688 207.3125 C 134.664062 207.921875 135.542969 208.195312 136.15625 207.796875 C 136.78125 207.394531 137.015625 206.605469 136.644531 205.945312 C 135.957031 204.722656 135.285156 203.484375 134.738281 202.191406 C 134.710938 202.121094 134.632812 201.925781 134.621094 201.894531 C 134.558594 201.738281 134.5 201.578125 134.441406 201.421875 C 134.320312 201.105469 134.1875 200.792969 134.058594 200.476562 C 133.789062 199.8125 133.503906 199.144531 133.308594 198.453125 C 134.695312 197.660156 136.066406 196.832031 137.425781 195.988281 C 139.097656 194.953125 140.722656 193.847656 142.351562 192.746094 C 143.8125 191.761719 145.082031 190.609375 146.433594 189.511719 C 147.121094 189.476562 147.816406 188.710938 147.414062 187.878906 " fill-opacity="1" fill-rule="nonzero"/></g><path fill="#ffffff" d="M 110.242188 185.558594 C 109.402344 188.078125 107.453125 190.101562 105.144531 191.347656 C 102.667969 192.6875 99.535156 193.117188 96.953125 191.789062 C 94.402344 190.472656 92.664062 187.960938 91.777344 185.277344 C 90.9375 182.742188 90.828125 179.84375 92.035156 177.398438 C 93.101562 175.246094 95.023438 173.46875 97.34375 172.769531 C 102.75 171.132812 109.222656 174.699219 110.636719 180.054688 C 110.972656 181.882812 110.828125 183.796875 110.242188 185.558594 Z M 113.511719 177.625 C 111.984375 173.414062 108.652344 170.304688 104.257812 169.289062 C 103.507812 169.117188 102.734375 168.988281 101.960938 168.90625 C 101.1875 168.777344 100.410156 168.679688 99.632812 168.628906 C 95.75 168.378906 92.175781 170.328125 89.898438 173.394531 C 87.640625 176.441406 86.855469 180.117188 87.433594 183.84375 C 88.011719 187.585938 90.09375 191.167969 92.996094 193.59375 C 96.28125 196.34375 100.558594 197.0625 104.636719 195.742188 C 112.023438 193.347656 116.171875 184.949219 113.511719 177.625 " fill-opacity="1" fill-rule="nonzero"/><g transform="matrix(1, 0, 0, 1, 156, 228)"><g clip-path="url(#debd505cf5)"><g clip-path="url(#8b8dc91ba4)"><g fill="#ffffff" fill-opacity="1"><g transform="translate(1.574774, 26.399674)"><g><path d="M 7.347656 -14.34375 C 7.246094 -14.011719 7.160156 -13.632812 7.085938 -13.195312 L 6.074219 -13.363281 L 7.09375 -13.234375 L 6.933594 -11.96875 L 5.914062 -12.097656 L 6.933594 -11.996094 L 6.839844 -11.023438 L 6.839844 -11.011719 C 6.789062 -10.613281 6.730469 -10.257812 6.660156 -9.949219 L 5.660156 -10.171875 L 6.675781 -10.035156 L 6.636719 -9.742188 C 6.648438 -9.828125 6.644531 -9.914062 6.625 -9.996094 C 6.59375 -10.144531 6.527344 -10.273438 6.425781 -10.386719 C 6.324219 -10.503906 6.203125 -10.585938 6.058594 -10.636719 C 5.976562 -10.664062 5.898438 -10.679688 5.820312 -10.679688 C 5.859375 -10.679688 5.898438 -10.683594 5.9375 -10.691406 L 7.199219 -10.972656 C 7.144531 -10.960938 7.089844 -10.9375 7.035156 -10.902344 C 6.9375 -10.839844 6.863281 -10.757812 6.804688 -10.652344 C 6.75 -10.558594 6.722656 -10.460938 6.714844 -10.359375 C 6.710938 -10.3125 6.714844 -10.273438 6.722656 -10.246094 L 7.71875 -10.492188 L 6.730469 -10.214844 L 6.609375 -10.644531 L 7.597656 -10.921875 L 6.625 -10.597656 L 6.257812 -11.691406 L 5.976562 -12.625 L 5.683594 -13.550781 L 6.664062 -13.859375 L 5.691406 -13.523438 L 5.558594 -13.910156 L 6.527344 -14.246094 L 5.578125 -13.863281 L 5.417969 -14.265625 L 6.367188 -14.644531 Z M 6.246094 -17.714844 L 7.488281 -14.601562 L 7.636719 -14.179688 L 7.9375 -13.222656 L 8.21875 -12.300781 L 7.234375 -12.003906 L 8.210938 -12.328125 L 8.578125 -11.222656 L 8.707031 -10.757812 L 8.710938 -10.742188 C 8.8125 -10.335938 8.773438 -9.96875 8.589844 -9.644531 C 8.484375 -9.457031 8.335938 -9.300781 8.148438 -9.179688 C 8.003906 -9.085938 7.835938 -9.015625 7.648438 -8.972656 L 6.398438 -8.695312 C 6.207031 -8.648438 6.015625 -8.628906 5.820312 -8.628906 C 5.667969 -8.628906 5.523438 -8.652344 5.386719 -8.699219 C 5.191406 -8.765625 5.023438 -8.878906 4.886719 -9.03125 C 4.753906 -9.183594 4.664062 -9.363281 4.621094 -9.5625 C 4.589844 -9.703125 4.585938 -9.855469 4.605469 -10.019531 L 4.652344 -10.355469 L 4.660156 -10.398438 C 4.714844 -10.640625 4.761719 -10.929688 4.804688 -11.257812 L 5.820312 -11.136719 L 4.800781 -11.234375 L 4.894531 -12.210938 L 5.058594 -13.511719 L 5.0625 -13.53125 C 5.152344 -14.058594 5.257812 -14.53125 5.390625 -14.949219 Z M -0.878906 -0.0585938 L -0.863281 -0.5 L 0.160156 -0.46875 L -0.863281 -0.417969 C -0.875 -0.652344 -0.863281 -0.910156 -0.832031 -1.191406 L -0.828125 -1.207031 L -0.828125 -1.222656 C -0.800781 -1.402344 -0.785156 -1.582031 -0.785156 -1.761719 L 0.242188 -1.761719 L -0.785156 -1.71875 C -0.8125 -2.414062 -0.738281 -3.398438 -0.5625 -4.679688 L 0.453125 -4.539062 L -0.566406 -4.65625 L -0.40625 -6.046875 L -0.246094 -7.621094 L -0.0820312 -9.222656 L 0 -9.769531 L 0.0820312 -10.289062 L 1.09375 -10.132812 L 0.0742188 -10.234375 L 0.234375 -11.863281 L 0.410156 -13.511719 L 0.515625 -14.410156 L 0.640625 -15.316406 L 0.746094 -16.140625 L 0.867188 -16.984375 C 0.949219 -17.597656 0.996094 -18.105469 1.003906 -18.511719 L 1.003906 -18.566406 L 1.054688 -18.960938 L 1.109375 -19.300781 L 2.121094 -19.132812 L 1.105469 -19.253906 L 1.304688 -20.9375 C 1.335938 -21.222656 1.425781 -21.476562 1.578125 -21.699219 C 1.761719 -21.964844 2.007812 -22.152344 2.320312 -22.253906 L 2.644531 -21.28125 L 2.28125 -22.242188 C 2.324219 -22.257812 2.371094 -22.308594 2.429688 -22.398438 L 2.453125 -22.4375 L 2.578125 -22.605469 L 2.703125 -22.753906 L 2.734375 -22.78125 C 2.941406 -22.988281 3.179688 -23.113281 3.445312 -23.152344 C 3.632812 -23.183594 3.816406 -23.164062 3.996094 -23.105469 C 4.144531 -23.050781 4.285156 -22.972656 4.40625 -22.863281 L 3.726562 -22.097656 L 4.3125 -22.9375 C 4.335938 -22.917969 4.402344 -22.890625 4.507812 -22.847656 L 4.777344 -22.746094 L 5.070312 -22.578125 L 5.105469 -22.554688 C 5.121094 -22.550781 5.148438 -22.546875 5.179688 -22.546875 C 5.679688 -22.539062 6.128906 -22.386719 6.527344 -22.085938 C 6.886719 -21.8125 7.171875 -21.433594 7.386719 -20.945312 C 7.773438 -20.074219 8.1875 -18.832031 8.636719 -17.21875 L 8.90625 -16.3125 L 9.148438 -15.390625 L 8.15625 -15.125 L 9.128906 -15.460938 L 9.261719 -15.074219 L 9.394531 -14.699219 L 9.652344 -13.910156 L 9.90625 -13.117188 C 10.128906 -12.457031 10.292969 -11.90625 10.398438 -11.464844 L 9.398438 -11.226562 L 10.390625 -11.496094 C 10.460938 -11.234375 10.566406 -10.964844 10.710938 -10.679688 L 10.734375 -10.640625 L 10.949219 -10.101562 L 11.117188 -9.613281 L 10.148438 -9.277344 L 11.097656 -9.660156 L 11.765625 -7.992188 L 10.8125 -7.609375 L 11.730469 -8.070312 L 11.863281 -7.808594 L 11.953125 -7.449219 L 11.957031 -7.359375 C 11.96875 -7.195312 12.015625 -7.003906 12.105469 -6.78125 L 12.261719 -6.390625 L 11.308594 -6.007812 L 12.242188 -6.429688 L 12.429688 -6.015625 C 12.597656 -5.664062 12.773438 -5.246094 12.960938 -4.761719 L 13.40625 -3.527344 C 13.539062 -3.167969 13.703125 -2.777344 13.890625 -2.347656 C 14.042969 -1.996094 14.148438 -1.621094 14.207031 -1.230469 C 14.238281 -1.011719 14.238281 -0.785156 14.207031 -0.554688 C 14.15625 -0.148438 13.996094 0.183594 13.734375 0.445312 C 13.480469 0.699219 13.152344 0.859375 12.757812 0.921875 C 12.511719 0.964844 12.269531 0.941406 12.035156 0.851562 C 11.78125 0.753906 11.574219 0.589844 11.414062 0.355469 L 12.257812 -0.226562 L 11.425781 0.375 L 11.105469 -0.0625 L 10.785156 -0.503906 C 10.488281 -0.90625 10.261719 -1.277344 10.105469 -1.621094 L 11.042969 -2.042969 L 10.121094 -1.59375 L 9.597656 -2.660156 L 9.085938 -3.738281 C 8.695312 -4.59375 8.382812 -5.351562 8.140625 -6.019531 L 7.789062 -7.015625 L 7.4375 -8.027344 L 7.390625 -8.183594 L 8.371094 -8.476562 L 7.40625 -8.128906 L 7.355469 -8.273438 L 8.316406 -8.625 L 7.363281 -8.253906 C 7.425781 -8.09375 7.539062 -7.96875 7.703125 -7.882812 C 7.832031 -7.816406 7.953125 -7.792969 8.070312 -7.808594 C 7.261719 -7.699219 6.59375 -7.675781 6.070312 -7.742188 L 6.046875 -7.742188 C 5.972656 -7.753906 5.929688 -7.757812 5.910156 -7.757812 C 5.9375 -7.757812 5.96875 -7.765625 6.007812 -7.777344 C 6.089844 -7.804688 6.167969 -7.851562 6.242188 -7.910156 C 6.304688 -7.960938 6.359375 -8.019531 6.394531 -8.082031 C 6.410156 -8.105469 6.421875 -8.125 6.429688 -8.144531 C 6.417969 -8.117188 6.40625 -8.0625 6.394531 -7.980469 L 5.5625 -2.738281 L 5.421875 -2.0625 L 5.109375 -0.742188 L 4.113281 -0.976562 L 5.117188 -0.773438 C 4.929688 0.160156 4.644531 0.917969 4.253906 1.492188 C 4.265625 1.476562 4.273438 1.46875 4.273438 1.464844 C 4.269531 1.472656 4.265625 1.480469 4.261719 1.492188 C 4.25 1.53125 4.234375 1.582031 4.222656 1.644531 C 4.121094 2.183594 3.808594 2.648438 3.28125 3.039062 C 2.761719 3.410156 2.234375 3.578125 1.699219 3.546875 L 1.078125 3.519531 L 1.121094 2.496094 L 1.175781 3.519531 C 0.785156 3.542969 0.421875 3.441406 0.0820312 3.222656 L 0.0429688 3.199219 L -0.210938 2.996094 L -0.429688 2.792969 C -0.652344 2.585938 -0.808594 2.335938 -0.902344 2.050781 C -0.980469 1.808594 -1.011719 1.539062 -0.996094 1.25 L -0.996094 1.234375 L -0.875 -0.117188 L 0.148438 -0.0273438 Z M 1.171875 0.0351562 L 1.046875 1.398438 L 0.0273438 1.308594 L 1.050781 1.367188 C 1.050781 1.390625 1.050781 1.40625 1.050781 1.421875 C 1.050781 1.425781 1.050781 1.425781 1.050781 1.425781 C 1.050781 1.421875 1.050781 1.417969 1.046875 1.414062 C 1.035156 1.371094 1.007812 1.332031 0.964844 1.292969 L 1.152344 1.464844 L 0.453125 2.214844 L 1.085938 1.410156 L 1.273438 1.558594 L 0.640625 2.363281 L 1.199219 1.503906 C 1.164062 1.480469 1.121094 1.46875 1.066406 1.472656 L 1.117188 1.46875 L 1.824219 1.5 C 1.875 1.503906 1.953125 1.46875 2.058594 1.394531 C 2.125 1.34375 2.175781 1.296875 2.203125 1.257812 C 2.207031 1.25 2.210938 1.246094 2.210938 1.242188 C 2.210938 1.246094 2.210938 1.246094 2.210938 1.242188 C 2.28125 0.890625 2.394531 0.59375 2.554688 0.347656 C 2.789062 0 2.972656 -0.507812 3.105469 -1.175781 L 3.109375 -1.191406 L 3.421875 -2.515625 L 4.417969 -2.28125 L 3.414062 -2.492188 L 3.546875 -3.132812 L 4.550781 -2.925781 L 3.539062 -3.085938 L 4.367188 -8.28125 C 4.398438 -8.503906 4.445312 -8.695312 4.507812 -8.859375 C 4.605469 -9.128906 4.753906 -9.339844 4.945312 -9.5 C 5.15625 -9.671875 5.417969 -9.773438 5.726562 -9.800781 C 5.90625 -9.816406 6.113281 -9.808594 6.34375 -9.773438 L 6.195312 -8.757812 L 6.320312 -9.777344 C 6.667969 -9.734375 7.160156 -9.753906 7.792969 -9.839844 C 8.105469 -9.882812 8.390625 -9.839844 8.644531 -9.707031 C 8.9375 -9.554688 9.148438 -9.316406 9.273438 -8.996094 L 9.277344 -8.984375 L 9.34375 -8.800781 L 9.394531 -8.640625 L 8.410156 -8.34375 L 9.378906 -8.683594 L 9.726562 -7.695312 L 10.070312 -6.714844 C 10.292969 -6.101562 10.582031 -5.402344 10.941406 -4.617188 L 11.441406 -3.558594 L 11.96875 -2.480469 L 11.976562 -2.464844 C 12.070312 -2.257812 12.226562 -2.003906 12.445312 -1.710938 L 12.765625 -1.269531 L 13.09375 -0.820312 L 13.097656 -0.8125 C 13.019531 -0.925781 12.910156 -1.011719 12.769531 -1.0625 C 12.652344 -1.109375 12.542969 -1.125 12.449219 -1.105469 C 12.441406 -1.105469 12.425781 -1.101562 12.40625 -1.09375 C 12.363281 -1.070312 12.324219 -1.042969 12.285156 -1.003906 C 12.246094 -0.964844 12.214844 -0.921875 12.195312 -0.875 C 12.183594 -0.851562 12.175781 -0.828125 12.171875 -0.808594 C 12.179688 -0.859375 12.179688 -0.902344 12.175781 -0.933594 C 12.144531 -1.144531 12.089844 -1.34375 12.011719 -1.523438 C 11.808594 -1.984375 11.628906 -2.421875 11.480469 -2.828125 L 11.046875 -4.023438 C 10.875 -4.464844 10.714844 -4.847656 10.5625 -5.171875 L 10.363281 -5.605469 L 10.191406 -6.035156 C 10.03125 -6.453125 9.9375 -6.851562 9.910156 -7.222656 L 10.933594 -7.289062 L 9.941406 -7.039062 L 9.898438 -7.203125 L 10.894531 -7.449219 L 9.976562 -6.992188 L 9.878906 -7.191406 L 9.183594 -8.921875 L 9.015625 -9.414062 L 9.988281 -9.746094 L 9.035156 -9.367188 L 8.847656 -9.832031 L 9.800781 -10.214844 L 8.886719 -9.746094 C 8.675781 -10.15625 8.515625 -10.5625 8.410156 -10.960938 L 8.40625 -10.976562 L 8.402344 -10.988281 C 8.3125 -11.371094 8.164062 -11.871094 7.957031 -12.488281 L 7.703125 -13.273438 L 7.449219 -14.046875 L 8.425781 -14.367188 L 7.457031 -14.019531 L 7.320312 -14.40625 L 7.175781 -14.828125 L 6.925781 -15.773438 L 7.917969 -16.035156 L 6.933594 -15.746094 L 6.664062 -16.667969 C 6.238281 -18.1875 5.855469 -19.339844 5.507812 -20.121094 C 5.4375 -20.285156 5.367188 -20.394531 5.289062 -20.449219 C 5.25 -20.480469 5.1875 -20.496094 5.101562 -20.496094 C 4.664062 -20.511719 4.277344 -20.636719 3.945312 -20.863281 L 4.527344 -21.707031 L 4.015625 -20.820312 L 3.832031 -20.925781 L 4.339844 -21.816406 L 3.980469 -20.855469 L 3.746094 -20.945312 C 3.492188 -21.042969 3.289062 -21.148438 3.136719 -21.257812 L 3.089844 -21.289062 L 3.042969 -21.328125 C 3.125 -21.257812 3.222656 -21.199219 3.332031 -21.164062 C 3.46875 -21.117188 3.609375 -21.105469 3.75 -21.125 C 3.929688 -21.152344 4.074219 -21.21875 4.183594 -21.332031 L 3.457031 -22.054688 L 4.238281 -21.386719 L 4.15625 -21.296875 L 3.378906 -21.960938 L 4.199219 -21.347656 L 4.117188 -21.242188 L 3.296875 -21.855469 L 4.167969 -21.3125 C 3.867188 -20.832031 3.480469 -20.503906 3.007812 -20.324219 L 2.96875 -20.308594 C 3.09375 -20.351562 3.191406 -20.425781 3.269531 -20.539062 C 3.3125 -20.601562 3.335938 -20.652344 3.339844 -20.691406 L 3.136719 -18.988281 L 3.082031 -18.644531 L 2.070312 -18.8125 L 3.085938 -18.683594 L 3.046875 -18.363281 L 2.03125 -18.492188 L 3.054688 -18.472656 C 3.046875 -17.988281 2.992188 -17.390625 2.898438 -16.6875 L 2.78125 -15.875 L 2.671875 -15.042969 L 2.554688 -14.164062 L 2.449219 -13.296875 L 2.277344 -11.660156 L 2.113281 -10.003906 L 2.027344 -9.457031 L 1.949219 -8.9375 L 0.933594 -9.09375 L 1.953125 -8.988281 L 1.792969 -7.414062 L 1.632812 -5.808594 L 1.472656 -4.410156 L 1.46875 -4.398438 C 1.308594 -3.238281 1.242188 -2.375 1.265625 -1.804688 L 1.265625 -1.761719 C 1.265625 -1.480469 1.242188 -1.195312 1.199219 -0.914062 L 0.1875 -1.066406 L 1.207031 -0.945312 C 1.183594 -0.78125 1.179688 -0.636719 1.183594 -0.519531 L 1.1875 -0.476562 L 1.171875 0.00390625 Z M 1.171875 0.0351562 "/></g></g></g></g><g fill="#ffffff" fill-opacity="1"><g transform="translate(17.327803, 26.399674)"><g><path d="M -0.769531 -14.484375 C -0.800781 -14.964844 -0.851562 -15.367188 -0.914062 -15.691406 C -0.980469 -16.082031 -0.949219 -16.429688 -0.816406 -16.742188 C -0.671875 -17.089844 -0.425781 -17.359375 -0.078125 -17.546875 L -0.0625 -17.558594 L -0.0429688 -17.566406 C 0.132812 -17.65625 0.335938 -17.726562 0.566406 -17.78125 L 0.609375 -17.792969 L 0.84375 -17.824219 L 1.003906 -17.847656 L 1.3125 -17.902344 L 1.480469 -16.890625 L 1.28125 -17.894531 L 1.628906 -17.964844 L 1.648438 -17.96875 C 1.96875 -18.019531 2.25 -18.046875 2.484375 -18.046875 L 2.519531 -18.046875 C 2.9375 -18.03125 3.316406 -17.929688 3.664062 -17.738281 C 4.003906 -17.550781 4.292969 -17.28125 4.53125 -16.9375 L 4.539062 -16.921875 L 4.550781 -16.90625 C 4.507812 -16.972656 4.453125 -17.03125 4.390625 -17.085938 C 4.269531 -17.183594 4.132812 -17.25 3.972656 -17.28125 C 3.800781 -17.3125 3.636719 -17.296875 3.472656 -17.234375 C 3.375 -17.199219 3.289062 -17.148438 3.21875 -17.082031 L 3.898438 -16.316406 L 3.089844 -16.945312 L 3.183594 -17.066406 L 3.300781 -17.222656 L 3.359375 -17.28125 C 4.636719 -18.515625 6.023438 -19.105469 7.515625 -19.046875 C 8.429688 -19.011719 9.238281 -18.617188 9.933594 -17.871094 C 10.871094 -16.867188 11.527344 -15.785156 11.894531 -14.625 C 12.265625 -13.453125 12.347656 -12.214844 12.132812 -10.914062 L 11.121094 -11.082031 L 12.140625 -10.960938 C 12.113281 -10.730469 12.042969 -10.523438 11.925781 -10.34375 C 11.78125 -10.113281 11.582031 -9.945312 11.328125 -9.839844 L 11.3125 -9.835938 L 11.300781 -9.828125 C 11.003906 -9.71875 10.683594 -9.707031 10.332031 -9.792969 C 10.101562 -9.851562 9.851562 -9.953125 9.582031 -10.105469 C 9.0625 -10.382812 8.699219 -10.691406 8.488281 -11.035156 C 8.148438 -11.589844 7.816406 -12.378906 7.488281 -13.398438 L 7.140625 -14.496094 L 8.117188 -14.804688 L 7.15625 -14.449219 C 7.023438 -14.8125 6.886719 -15.121094 6.75 -15.371094 C 6.625 -15.605469 6.484375 -15.761719 6.335938 -15.839844 C 6.1875 -15.917969 5.988281 -15.9375 5.742188 -15.902344 C 5.792969 -15.90625 5.84375 -15.925781 5.890625 -15.953125 C 5.902344 -15.957031 5.910156 -15.964844 5.917969 -15.96875 C 5.914062 -15.96875 5.910156 -15.964844 5.90625 -15.957031 C 5.839844 -15.886719 5.757812 -15.761719 5.667969 -15.582031 C 5.578125 -15.402344 5.519531 -15.25 5.496094 -15.128906 C 5.488281 -15.09375 5.484375 -15.066406 5.484375 -15.046875 L 5.484375 -15.042969 C 5.484375 -15.050781 5.484375 -15.058594 5.480469 -15.066406 C 6.308594 -12.515625 6.746094 -9.902344 6.792969 -7.226562 L 6.832031 -6.070312 L 6.875 -4.894531 L 6.875 -4.882812 C 6.882812 -3.929688 6.84375 -3.105469 6.757812 -2.410156 C 6.65625 -1.613281 6.453125 -1 6.144531 -0.578125 C 6.089844 -0.5 6.042969 -0.382812 6.003906 -0.21875 L 5.90625 0.167969 L 5.808594 0.582031 L 5.796875 0.617188 C 5.652344 1.066406 5.417969 1.394531 5.09375 1.597656 C 4.871094 1.734375 4.625 1.804688 4.359375 1.800781 C 4.148438 1.800781 3.9375 1.75 3.726562 1.652344 L 3.695312 1.636719 C 3.621094 1.601562 3.511719 1.570312 3.363281 1.542969 L 2.722656 1.421875 C 2.015625 1.277344 1.453125 1.019531 1.035156 0.652344 C 0.539062 0.21875 0.246094 -0.421875 0.15625 -1.265625 C -0.0234375 -2.871094 -0.191406 -4.859375 -0.34375 -7.222656 L -0.515625 -10.179688 L -0.703125 -13.140625 L -0.769531 -14.503906 Z M 1.277344 -14.601562 L 1.34375 -13.269531 L 1.53125 -10.300781 L 1.703125 -7.355469 C 1.855469 -5.023438 2.019531 -3.066406 2.195312 -1.484375 C 2.214844 -1.296875 2.25 -1.144531 2.296875 -1.027344 C 2.328125 -0.964844 2.355469 -0.917969 2.382812 -0.890625 C 2.535156 -0.761719 2.773438 -0.660156 3.097656 -0.59375 L 3.738281 -0.472656 C 4.074219 -0.414062 4.363281 -0.320312 4.609375 -0.195312 L 4.152344 0.722656 L 4.578125 -0.210938 C 4.523438 -0.238281 4.457031 -0.25 4.378906 -0.25 C 4.246094 -0.25 4.125 -0.21875 4.011719 -0.148438 C 3.9375 -0.101562 3.878906 -0.046875 3.839844 0.015625 C 3.832031 0.0234375 3.832031 0.0273438 3.828125 0.03125 C 3.832031 0.0234375 3.835938 0.0117188 3.84375 -0.00390625 L 4.820312 0.308594 L 3.824219 0.0664062 L 3.917969 -0.328125 L 4.007812 -0.6875 C 4.113281 -1.128906 4.269531 -1.492188 4.480469 -1.773438 C 4.519531 -1.828125 4.558594 -1.914062 4.59375 -2.035156 C 4.648438 -2.207031 4.691406 -2.414062 4.722656 -2.664062 C 4.796875 -3.265625 4.832031 -4 4.824219 -4.863281 L 5.847656 -4.875 L 4.824219 -4.835938 L 4.78125 -6 L 4.742188 -7.191406 C 4.699219 -9.660156 4.292969 -12.085938 3.519531 -14.464844 C 3.339844 -15.046875 3.449219 -15.730469 3.839844 -16.511719 C 4.277344 -17.378906 4.816406 -17.851562 5.449219 -17.929688 C 6.125 -18.027344 6.734375 -17.941406 7.269531 -17.664062 C 7.804688 -17.390625 8.230469 -16.953125 8.550781 -16.351562 C 8.734375 -16.015625 8.910156 -15.617188 9.078125 -15.160156 L 9.085938 -15.140625 L 9.441406 -14.023438 C 9.71875 -13.160156 9.980469 -12.523438 10.230469 -12.113281 C 10.222656 -12.128906 10.21875 -12.132812 10.214844 -12.136719 C 10.226562 -12.125 10.242188 -12.109375 10.265625 -12.09375 C 10.335938 -12.035156 10.441406 -11.972656 10.578125 -11.898438 C 10.691406 -11.835938 10.773438 -11.796875 10.828125 -11.78125 C 10.820312 -11.785156 10.800781 -11.785156 10.777344 -11.785156 C 10.710938 -11.785156 10.640625 -11.773438 10.570312 -11.746094 L 10.933594 -10.789062 L 10.539062 -11.734375 C 10.394531 -11.675781 10.28125 -11.578125 10.195312 -11.445312 C 10.144531 -11.363281 10.113281 -11.28125 10.101562 -11.203125 L 10.105469 -11.222656 L 10.109375 -11.246094 C 10.269531 -12.226562 10.214844 -13.144531 9.941406 -14 C 9.664062 -14.871094 9.164062 -15.691406 8.4375 -16.46875 C 8.121094 -16.808594 7.789062 -16.984375 7.4375 -17 C 6.527344 -17.03125 5.644531 -16.632812 4.785156 -15.804688 L 4.070312 -16.542969 L 4.890625 -15.925781 L 4.800781 -15.804688 L 4.648438 -15.609375 L 4.578125 -15.546875 C 4.464844 -15.449219 4.34375 -15.371094 4.207031 -15.320312 C 4.007812 -15.242188 3.804688 -15.226562 3.597656 -15.265625 C 3.402344 -15.300781 3.230469 -15.382812 3.078125 -15.507812 C 2.976562 -15.59375 2.890625 -15.691406 2.820312 -15.804688 L 3.683594 -16.355469 L 2.839844 -15.773438 C 2.785156 -15.855469 2.726562 -15.914062 2.667969 -15.945312 C 2.609375 -15.976562 2.535156 -15.996094 2.449219 -15.996094 L 2.484375 -17.023438 L 2.484375 -15.996094 C 2.363281 -15.996094 2.195312 -15.980469 1.984375 -15.945312 L 1.816406 -16.957031 L 2.015625 -15.949219 L 1.667969 -15.878906 L 1.316406 -15.820312 L 1.132812 -15.792969 L 0.945312 -15.765625 L 0.800781 -16.78125 L 1.035156 -15.785156 C 0.960938 -15.765625 0.90625 -15.75 0.871094 -15.730469 L 0.414062 -16.648438 L 0.90625 -15.75 C 0.976562 -15.789062 1.03125 -15.855469 1.070312 -15.945312 C 1.089844 -15.988281 1.097656 -16.023438 1.101562 -16.0625 C 1.101562 -16.070312 1.101562 -16.074219 1.101562 -16.078125 C 1.101562 -16.074219 1.101562 -16.078125 1.101562 -16.085938 C 1.179688 -15.675781 1.238281 -15.191406 1.277344 -14.621094 Z M 1.277344 -14.601562 "/></g></g></g><g fill="#ffffff" fill-opacity="1"><g transform="translate(31.278578, 26.399674)"><g><path d="M 14.492188 -3.851562 C 14.308594 -1.996094 13.988281 -0.3125 13.53125 1.191406 L 13.511719 1.253906 L 13.433594 1.429688 L 13.363281 1.585938 L 12.429688 1.160156 L 13.425781 1.410156 C 13.46875 1.226562 13.449219 1.042969 13.363281 0.863281 C 13.273438 0.671875 13.140625 0.535156 12.960938 0.453125 L 12.976562 0.460938 L 12.996094 0.472656 C 12.898438 0.421875 12.796875 0.394531 12.6875 0.382812 C 12.5625 0.371094 12.4375 0.386719 12.316406 0.425781 C 12.152344 0.480469 12.023438 0.570312 11.925781 0.691406 L 12.738281 1.320312 L 11.882812 0.753906 L 11.964844 0.632812 L 12.816406 1.203125 L 11.949219 0.65625 L 12.09375 0.421875 L 12.367188 0.183594 L 13.988281 -0.894531 L 14.152344 1.089844 L 14.117188 1.46875 L 14.058594 1.609375 C 13.59375 2.722656 12.867188 3.597656 11.878906 4.238281 C 11.320312 4.597656 10.746094 4.832031 10.160156 4.941406 C 9.5625 5.058594 8.957031 5.042969 8.347656 4.894531 C 6.242188 4.390625 4.605469 3.417969 3.433594 1.96875 C 2.277344 0.539062 1.605469 -1.320312 1.421875 -3.617188 C 1.113281 -7.46875 1.039062 -11.1875 1.191406 -14.769531 C 1.1875 -14.714844 1.203125 -14.648438 1.230469 -14.570312 C 1.28125 -14.445312 1.359375 -14.34375 1.472656 -14.261719 C 1.546875 -14.207031 1.621094 -14.175781 1.691406 -14.164062 C 1.703125 -14.160156 1.707031 -14.160156 1.710938 -14.160156 C 1.703125 -14.160156 1.6875 -14.160156 1.671875 -14.15625 L 0.785156 -14.078125 L -0.109375 -14 C -0.851562 -13.933594 -1.496094 -13.914062 -2.042969 -13.941406 L -2.289062 -13.957031 L -2.578125 -13.996094 L -2.625 -14.003906 C -2.890625 -14.0625 -3.113281 -14.179688 -3.292969 -14.347656 C -3.527344 -14.570312 -3.65625 -14.847656 -3.679688 -15.175781 C -3.707031 -15.488281 -3.617188 -15.773438 -3.417969 -16.027344 C -3.277344 -16.203125 -3.09375 -16.339844 -2.867188 -16.441406 L -2.824219 -16.457031 L -2.558594 -16.546875 L -2.332031 -16.613281 L -2.3125 -16.617188 C -0.785156 -16.988281 0.519531 -17.207031 1.59375 -17.273438 C 1.609375 -17.273438 1.621094 -17.273438 1.628906 -17.273438 C 1.621094 -17.273438 1.617188 -17.273438 1.609375 -17.269531 C 1.5625 -17.25 1.519531 -17.222656 1.480469 -17.183594 C 1.441406 -17.144531 1.414062 -17.101562 1.394531 -17.058594 C 1.394531 -17.046875 1.390625 -17.042969 1.390625 -17.039062 C 1.390625 -17.042969 1.390625 -17.054688 1.394531 -17.066406 C 1.535156 -19.582031 1.746094 -21.765625 2.015625 -23.621094 L 3.03125 -23.472656 L 2.007812 -23.542969 L 2.035156 -23.917969 L 2.0625 -24.355469 L 2.070312 -24.398438 C 2.125 -24.761719 2.261719 -25.058594 2.484375 -25.285156 C 2.628906 -25.433594 2.796875 -25.546875 2.992188 -25.617188 C 3.164062 -25.675781 3.347656 -25.703125 3.539062 -25.699219 L 3.496094 -24.671875 L 3.476562 -25.699219 L 4.117188 -25.710938 C 4.453125 -25.710938 4.730469 -25.695312 4.953125 -25.660156 C 5.339844 -25.601562 5.6875 -25.472656 5.996094 -25.269531 C 6.3125 -25.0625 6.570312 -24.785156 6.773438 -24.445312 C 7.167969 -23.789062 7.457031 -22.988281 7.640625 -22.050781 L 7.644531 -22.03125 L 7.8125 -20.910156 L 7.945312 -19.804688 C 8.082031 -18.78125 8.191406 -17.789062 8.269531 -16.828125 C 8.265625 -16.882812 8.25 -16.9375 8.222656 -16.996094 C 8.179688 -17.082031 8.121094 -17.152344 8.042969 -17.214844 C 7.984375 -17.257812 7.925781 -17.289062 7.863281 -17.308594 C 7.847656 -17.308594 7.835938 -17.3125 7.828125 -17.3125 C 7.828125 -17.3125 7.832031 -17.3125 7.835938 -17.3125 L 8.890625 -17.3125 L 9.953125 -17.328125 L 9.96875 -17.328125 C 10.851562 -17.308594 11.625 -17.21875 12.285156 -17.058594 L 12.042969 -16.0625 L 12.226562 -17.070312 L 12.371094 -17.042969 L 12.191406 -16.035156 L 12.28125 -17.054688 L 12.5 -17.035156 L 12.566406 -17.019531 C 12.761719 -16.976562 12.9375 -16.894531 13.09375 -16.78125 C 13.257812 -16.660156 13.390625 -16.507812 13.492188 -16.324219 L 14.0625 -15.277344 L 12.613281 -14.75 L 12.210938 -14.636719 L 8.171875 -14.214844 C 8.164062 -14.214844 8.160156 -14.210938 8.15625 -14.210938 C 8.164062 -14.210938 8.171875 -14.214844 8.179688 -14.21875 C 8.234375 -14.242188 8.28125 -14.273438 8.328125 -14.320312 C 8.386719 -14.378906 8.425781 -14.445312 8.453125 -14.515625 C 8.46875 -14.558594 8.476562 -14.589844 8.476562 -14.621094 L 8.433594 -8.246094 L 8.421875 -1.894531 C 8.429688 -1.484375 8.476562 -0.960938 8.558594 -0.320312 L 8.679688 0.539062 L 8.800781 1.390625 L 7.785156 1.535156 L 8.785156 1.320312 L 8.828125 1.507812 L 7.824219 1.722656 L 8.78125 1.355469 L 8.855469 1.546875 L 8.863281 1.570312 C 8.902344 1.6875 8.9375 1.769531 8.96875 1.808594 C 8.953125 1.792969 8.933594 1.773438 8.90625 1.753906 C 8.851562 1.710938 8.785156 1.679688 8.710938 1.664062 C 8.632812 1.640625 8.554688 1.640625 8.476562 1.652344 C 8.433594 1.660156 8.394531 1.667969 8.363281 1.683594 C 8.390625 1.671875 8.441406 1.625 8.511719 1.546875 C 10.300781 -0.398438 11.421875 -2.589844 11.875 -5.019531 L 12.882812 -4.832031 L 11.859375 -4.90625 L 11.875 -5.128906 L 11.917969 -5.414062 L 11.933594 -5.472656 C 12.003906 -5.738281 12.136719 -5.957031 12.328125 -6.125 C 12.558594 -6.332031 12.835938 -6.433594 13.152344 -6.433594 L 13.179688 -6.433594 L 13.210938 -6.429688 C 13.546875 -6.410156 13.824219 -6.292969 14.042969 -6.070312 C 14.179688 -5.933594 14.28125 -5.769531 14.335938 -5.582031 C 14.382812 -5.433594 14.398438 -5.285156 14.386719 -5.125 L 14.382812 -5.042969 L 14.324219 -4.789062 L 13.324219 -5.019531 L 14.351562 -5.019531 L 14.351562 -4.847656 L 13.324219 -4.847656 L 14.335938 -5.015625 L 14.417969 -4.535156 L 14.503906 -3.984375 Z M 12.449219 -4.054688 L 13.472656 -3.953125 L 12.457031 -3.789062 L 12.394531 -4.195312 L 12.300781 -4.761719 L 12.300781 -5.136719 L 12.363281 -5.425781 L 13.363281 -5.195312 L 12.339844 -5.261719 C 12.335938 -5.171875 12.347656 -5.078125 12.375 -4.984375 C 12.417969 -4.84375 12.488281 -4.726562 12.59375 -4.621094 C 12.683594 -4.53125 12.785156 -4.464844 12.902344 -4.425781 C 12.96875 -4.402344 13.03125 -4.386719 13.089844 -4.382812 L 13.152344 -5.40625 L 13.152344 -4.382812 C 13.351562 -4.382812 13.53125 -4.449219 13.6875 -4.589844 C 13.804688 -4.691406 13.878906 -4.808594 13.914062 -4.941406 L 12.925781 -5.207031 L 13.9375 -5.0625 L 13.914062 -4.875 L 12.898438 -5.019531 L 13.921875 -4.945312 L 13.902344 -4.703125 L 13.890625 -4.644531 C 13.367188 -1.828125 12.074219 0.699219 10.019531 2.9375 C 9.4375 3.570312 8.835938 3.808594 8.210938 3.652344 C 7.621094 3.503906 7.1875 3.027344 6.917969 2.222656 L 7.890625 1.894531 L 6.933594 2.265625 L 6.835938 2.015625 L 6.773438 1.714844 L 6.648438 0.820312 L 6.527344 -0.0546875 C 6.433594 -0.765625 6.378906 -1.382812 6.371094 -1.898438 L 6.382812 -8.257812 L 6.425781 -14.621094 C 6.425781 -15.085938 6.574219 -15.46875 6.878906 -15.773438 C 7.152344 -16.042969 7.511719 -16.203125 7.957031 -16.253906 L 11.910156 -16.667969 L 12.015625 -15.648438 L 11.734375 -16.632812 L 12.015625 -16.714844 L 12.296875 -15.726562 L 11.945312 -16.691406 L 12.238281 -16.796875 L 12.589844 -15.835938 L 11.691406 -15.34375 C 11.734375 -15.257812 11.796875 -15.1875 11.878906 -15.128906 C 11.949219 -15.078125 12.027344 -15.039062 12.105469 -15.023438 L 12.335938 -16.019531 L 12.242188 -15 L 12.050781 -15.015625 L 11.828125 -15.058594 L 11.800781 -15.066406 C 11.285156 -15.191406 10.660156 -15.261719 9.925781 -15.277344 L 9.945312 -16.300781 L 9.960938 -15.277344 L 8.890625 -15.261719 L 7.835938 -15.261719 C 7.421875 -15.261719 7.070312 -15.371094 6.789062 -15.589844 C 6.613281 -15.726562 6.476562 -15.894531 6.378906 -16.09375 C 6.296875 -16.261719 6.246094 -16.449219 6.226562 -16.65625 C 6.148438 -17.582031 6.042969 -18.550781 5.910156 -19.554688 L 5.777344 -20.648438 L 6.796875 -20.773438 L 5.78125 -20.625 L 5.621094 -21.707031 L 6.636719 -21.855469 L 5.628906 -21.660156 C 5.492188 -22.359375 5.285156 -22.941406 5.003906 -23.40625 C 4.964844 -23.472656 4.917969 -23.523438 4.871094 -23.554688 C 4.816406 -23.59375 4.734375 -23.617188 4.632812 -23.632812 C 4.515625 -23.652344 4.359375 -23.660156 4.160156 -23.660156 L 3.488281 -23.648438 L 3.457031 -23.648438 C 3.535156 -23.644531 3.609375 -23.65625 3.691406 -23.6875 C 3.792969 -23.722656 3.882812 -23.78125 3.957031 -23.859375 C 4.011719 -23.917969 4.054688 -23.976562 4.082031 -24.042969 C 4.089844 -24.066406 4.097656 -24.082031 4.097656 -24.09375 L 3.085938 -24.246094 L 4.105469 -24.175781 L 4.082031 -23.773438 L 4.050781 -23.359375 L 4.046875 -23.324219 C 3.78125 -21.527344 3.582031 -19.40625 3.441406 -16.953125 C 3.414062 -16.453125 3.242188 -16.046875 2.929688 -15.734375 C 2.621094 -15.421875 2.214844 -15.253906 1.71875 -15.226562 C 0.765625 -15.167969 -0.417969 -14.964844 -1.828125 -14.625 L -2.070312 -15.621094 L -1.789062 -14.632812 L -1.972656 -14.582031 L -2.257812 -15.566406 L -1.933594 -14.59375 L -2.132812 -14.527344 L -2.457031 -15.5 L -2.046875 -14.5625 C -1.960938 -14.597656 -1.882812 -14.664062 -1.808594 -14.753906 C -1.675781 -14.925781 -1.617188 -15.113281 -1.632812 -15.320312 C -1.648438 -15.523438 -1.730469 -15.695312 -1.882812 -15.835938 C -1.976562 -15.929688 -2.078125 -15.984375 -2.179688 -16.007812 L -2.402344 -15.007812 L -2.277344 -16.023438 L -2.0625 -15.996094 L -2.191406 -14.980469 L -2.121094 -16.003906 L -1.933594 -15.992188 C -1.484375 -15.964844 -0.9375 -15.984375 -0.292969 -16.042969 L 0.601562 -16.121094 L 1.503906 -16.203125 C 1.976562 -16.242188 2.363281 -16.148438 2.671875 -15.925781 C 2.890625 -15.769531 3.046875 -15.566406 3.140625 -15.316406 C 3.21875 -15.121094 3.253906 -14.90625 3.242188 -14.683594 C 3.089844 -11.183594 3.167969 -7.546875 3.464844 -3.78125 C 3.617188 -1.910156 4.140625 -0.421875 5.03125 0.679688 C 5.90625 1.765625 7.171875 2.503906 8.824219 2.902344 C 9.472656 3.054688 10.121094 2.929688 10.765625 2.515625 C 11.394531 2.105469 11.863281 1.542969 12.164062 0.820312 L 13.109375 1.214844 L 12.089844 1.113281 L 12.105469 0.980469 L 13.125 1.082031 L 12.101562 1.167969 L 12.089844 1.007812 L 13.109375 0.921875 L 13.679688 1.773438 L 13.558594 1.855469 L 12.992188 1 L 13.664062 1.773438 L 13.558594 1.867188 L 12.882812 1.09375 L 13.753906 1.636719 L 13.679688 1.757812 L 13.570312 1.921875 L 13.546875 1.953125 C 13.386719 2.15625 13.195312 2.292969 12.964844 2.371094 C 12.808594 2.421875 12.652344 2.441406 12.492188 2.425781 C 12.347656 2.410156 12.210938 2.371094 12.078125 2.304688 L 12.535156 1.386719 L 12.113281 2.320312 C 11.835938 2.195312 11.632812 2 11.507812 1.734375 C 11.386719 1.476562 11.363281 1.203125 11.433594 0.914062 L 11.457031 0.820312 L 11.558594 0.597656 L 11.613281 0.476562 L 12.550781 0.894531 L 11.570312 0.597656 C 11.984375 -0.78125 12.28125 -2.332031 12.449219 -4.054688 Z M 12.449219 -4.054688 "/></g></g></g><g fill="#ffffff" fill-opacity="1"><g transform="translate(47.418757, 26.399674)"><g><path d="M 5.097656 -13.589844 C 5.089844 -13.328125 5.097656 -13.121094 5.117188 -12.960938 C 5.125 -12.90625 5.132812 -12.863281 5.144531 -12.832031 C 5.144531 -12.828125 5.144531 -12.824219 5.144531 -12.824219 C 5.140625 -12.835938 5.132812 -12.847656 5.125 -12.863281 C 5.101562 -12.902344 5.082031 -12.929688 5.066406 -12.941406 C 5.078125 -12.929688 5.101562 -12.914062 5.132812 -12.898438 C 5.242188 -12.832031 5.398438 -12.757812 5.601562 -12.683594 L 6.636719 -12.292969 C 7.054688 -12.144531 7.414062 -11.992188 7.722656 -11.84375 C 8.582031 -11.429688 9.277344 -10.925781 9.804688 -10.335938 C 10.691406 -9.34375 11.277344 -8.273438 11.558594 -7.117188 C 11.898438 -5.699219 11.714844 -4.390625 11.003906 -3.1875 L 10.535156 -2.402344 C 10.335938 -2.0625 10.140625 -1.769531 9.953125 -1.53125 C 9.421875 -0.832031 8.800781 -0.332031 8.09375 -0.03125 C 7.601562 0.1875 7.171875 0.28125 6.796875 0.246094 C 4.097656 -0.00390625 2.183594 -0.886719 1.058594 -2.40625 L 1.882812 -3.015625 L 1.078125 -2.378906 L 0.570312 -3.023438 L 0.0546875 -3.675781 L 0.0429688 -3.691406 C -0.40625 -4.300781 -0.710938 -4.902344 -0.871094 -5.488281 L 0.121094 -5.753906 L -0.832031 -5.375 L -0.910156 -5.570312 L -0.980469 -5.84375 L -0.988281 -5.890625 C -1.023438 -6.136719 -1 -6.367188 -0.910156 -6.582031 C -0.792969 -6.875 -0.585938 -7.082031 -0.296875 -7.210938 L 0.121094 -6.273438 L -0.339844 -7.191406 C -0.1875 -7.269531 -0.0273438 -7.308594 0.140625 -7.3125 C 0.3125 -7.320312 0.480469 -7.289062 0.636719 -7.21875 C 0.84375 -7.128906 1.019531 -6.984375 1.164062 -6.785156 L 1.199219 -6.734375 L 1.308594 -6.539062 L 1.382812 -6.386719 L 0.46875 -5.929688 L 1.371094 -6.410156 C 1.492188 -6.1875 1.707031 -5.976562 2.019531 -5.777344 L 1.46875 -4.914062 L 1.980469 -5.800781 L 2.605469 -5.441406 L 3.253906 -5.085938 L 3.285156 -5.0625 C 3.28125 -5.066406 3.273438 -5.070312 3.253906 -5.074219 C 3.214844 -5.089844 3.167969 -5.09375 3.121094 -5.09375 C 3.023438 -5.09375 2.949219 -5.070312 2.890625 -5.023438 L 3.539062 -5.523438 L 4.164062 -4.714844 L 3.519531 -5.507812 C 3.722656 -5.675781 3.890625 -5.828125 4.023438 -5.964844 C 4.320312 -6.277344 4.515625 -6.601562 4.601562 -6.9375 C 4.644531 -7.09375 4.648438 -7.214844 4.613281 -7.296875 C 4.574219 -7.386719 4.472656 -7.480469 4.304688 -7.578125 L 3.84375 -7.839844 L 3.386719 -8.089844 L 3.375 -8.097656 C 2.972656 -8.328125 2.640625 -8.546875 2.375 -8.757812 C 0.363281 -10.414062 -0.660156 -12.171875 -0.703125 -14.035156 C -0.71875 -14.882812 -0.457031 -15.691406 0.0742188 -16.46875 C 0.675781 -17.351562 1.421875 -17.863281 2.320312 -18.007812 L 2.484375 -16.996094 L 2.242188 -17.992188 L 2.734375 -18.113281 L 2.976562 -17.117188 L 2.667969 -18.09375 L 3.175781 -18.253906 C 3.722656 -18.421875 4.203125 -18.484375 4.621094 -18.445312 C 5.960938 -18.324219 7.03125 -17.820312 7.835938 -16.9375 C 8.660156 -16.03125 9.054688 -14.882812 9.023438 -13.488281 L 7.996094 -13.511719 L 9.023438 -13.511719 C 9.023438 -13.253906 8.980469 -13.03125 8.898438 -12.839844 L 7.957031 -13.246094 L 8.910156 -12.863281 C 8.824219 -12.652344 8.695312 -12.476562 8.519531 -12.335938 C 8.351562 -12.203125 8.160156 -12.113281 7.941406 -12.074219 C 7.722656 -12.03125 7.507812 -12.046875 7.292969 -12.125 C 7.085938 -12.195312 6.90625 -12.320312 6.757812 -12.488281 L 6.589844 -12.6875 L 6.480469 -12.90625 L 6.023438 -13.8125 C 5.859375 -14.164062 5.71875 -14.429688 5.605469 -14.609375 L 5.597656 -14.621094 L 5.589844 -14.636719 C 5.457031 -14.863281 5.34375 -15.019531 5.25 -15.109375 C 5.242188 -15.117188 5.234375 -15.125 5.230469 -15.128906 C 5.234375 -15.125 5.242188 -15.117188 5.253906 -15.113281 C 5.320312 -15.078125 5.398438 -15.0625 5.488281 -15.0625 L 5.488281 -16.089844 L 5.519531 -15.0625 C 5.605469 -15.066406 5.679688 -15.082031 5.742188 -15.117188 C 5.753906 -15.125 5.761719 -15.128906 5.765625 -15.132812 C 5.761719 -15.128906 5.753906 -15.125 5.746094 -15.113281 C 5.65625 -15.023438 5.546875 -14.867188 5.421875 -14.640625 L 5.230469 -14.28125 L 4.324219 -14.765625 L 5.257812 -14.335938 L 5.082031 -13.960938 L 4.152344 -14.390625 L 5.101562 -14.007812 C 5.082031 -13.953125 5.070312 -13.910156 5.066406 -13.878906 C 5.066406 -13.875 5.066406 -13.871094 5.066406 -13.871094 C 5.066406 -13.875 5.0625 -13.878906 5.0625 -13.882812 L 5.101562 -13.738281 Z M 3.046875 -13.648438 L 4.070312 -13.617188 L 3.082031 -13.351562 C 2.960938 -13.804688 3 -14.28125 3.203125 -14.777344 L 3.210938 -14.800781 L 3.40625 -15.226562 L 3.628906 -15.640625 C 3.851562 -16.035156 4.078125 -16.347656 4.304688 -16.574219 C 4.65625 -16.921875 5.042969 -17.101562 5.457031 -17.113281 L 5.488281 -17.113281 C 5.90625 -17.113281 6.296875 -16.941406 6.660156 -16.597656 C 6.894531 -16.375 7.128906 -16.066406 7.359375 -15.671875 L 6.476562 -15.152344 L 7.34375 -15.695312 C 7.5 -15.449219 7.671875 -15.128906 7.859375 -14.730469 L 8.367188 -13.714844 L 7.449219 -13.257812 L 8.230469 -13.925781 L 8.300781 -13.839844 C 8.214844 -13.9375 8.105469 -14.011719 7.976562 -14.058594 C 7.835938 -14.105469 7.703125 -14.117188 7.574219 -14.09375 C 7.453125 -14.070312 7.339844 -14.019531 7.238281 -13.9375 C 7.132812 -13.851562 7.054688 -13.746094 7.003906 -13.625 L 7.007812 -13.636719 L 7.015625 -13.648438 C 6.992188 -13.597656 6.980469 -13.550781 6.972656 -13.511719 L 6.972656 -13.535156 C 6.992188 -14.382812 6.773438 -15.058594 6.316406 -15.558594 C 5.875 -16.046875 5.246094 -16.328125 4.429688 -16.402344 C 4.28125 -16.417969 4.066406 -16.382812 3.792969 -16.296875 L 3.253906 -16.128906 L 2.6875 -15.988281 L 2.648438 -15.984375 C 2.332031 -15.933594 2.039062 -15.707031 1.765625 -15.308594 C 1.480469 -14.890625 1.339844 -14.480469 1.34375 -14.082031 C 1.375 -12.847656 2.144531 -11.605469 3.65625 -10.359375 C 3.839844 -10.214844 4.085938 -10.054688 4.394531 -9.875 L 3.886719 -8.984375 L 4.375 -9.886719 L 4.859375 -9.621094 L 5.335938 -9.351562 C 5.890625 -9.03125 6.277344 -8.617188 6.496094 -8.109375 C 6.71875 -7.59375 6.75 -7.03125 6.585938 -6.414062 C 6.40625 -5.734375 6.050781 -5.117188 5.511719 -4.554688 C 5.320312 -4.355469 5.085938 -4.140625 4.8125 -3.917969 L 4.800781 -3.910156 L 4.160156 -3.414062 C 3.851562 -3.171875 3.519531 -3.050781 3.15625 -3.042969 C 2.8125 -3.039062 2.480469 -3.140625 2.160156 -3.347656 L 2.722656 -4.207031 L 2.226562 -3.308594 L 1.585938 -3.664062 L 0.9375 -4.035156 L 0.917969 -4.046875 C 0.304688 -4.4375 -0.148438 -4.902344 -0.4375 -5.445312 L -0.445312 -5.457031 L -0.515625 -5.601562 L 0.402344 -6.0625 L -0.496094 -5.5625 L -0.5625 -5.683594 L 0.332031 -6.179688 L -0.496094 -5.578125 C -0.421875 -5.476562 -0.316406 -5.398438 -0.183594 -5.339844 C -0.0625 -5.285156 0.0703125 -5.261719 0.207031 -5.265625 C 0.335938 -5.269531 0.460938 -5.300781 0.578125 -5.359375 L 0.558594 -5.347656 L 0.535156 -5.339844 C 0.746094 -5.429688 0.894531 -5.585938 0.984375 -5.800781 C 1.042969 -5.9375 1.058594 -6.074219 1.039062 -6.203125 L 0.0273438 -6.046875 L 1.023438 -6.296875 L 1.0625 -6.136719 L 0.0664062 -5.886719 L 1.019531 -6.269531 L 1.09375 -6.078125 L 1.109375 -6.019531 C 1.203125 -5.683594 1.394531 -5.3125 1.695312 -4.90625 L 0.867188 -4.300781 L 1.671875 -4.9375 L 2.179688 -4.292969 L 2.695312 -3.640625 L 2.707031 -3.628906 C 3.46875 -2.601562 4.894531 -1.988281 6.980469 -1.796875 C 6.964844 -1.796875 6.949219 -1.796875 6.941406 -1.796875 C 6.953125 -1.796875 6.96875 -1.800781 6.988281 -1.804688 C 7.0625 -1.824219 7.164062 -1.863281 7.289062 -1.917969 C 7.664062 -2.078125 8.015625 -2.371094 8.339844 -2.792969 C 8.46875 -2.964844 8.613281 -3.179688 8.769531 -3.445312 L 9.238281 -4.234375 C 9.667969 -4.957031 9.773438 -5.757812 9.5625 -6.632812 C 9.363281 -7.453125 8.933594 -8.234375 8.273438 -8.96875 C 7.925781 -9.359375 7.445312 -9.699219 6.828125 -10 C 6.585938 -10.117188 6.28125 -10.242188 5.914062 -10.375 L 4.894531 -10.757812 C 4.5625 -10.878906 4.285156 -11.011719 4.058594 -11.148438 C 3.757812 -11.335938 3.523438 -11.554688 3.367188 -11.808594 C 3.226562 -12.039062 3.132812 -12.332031 3.085938 -12.6875 C 3.050781 -12.953125 3.035156 -13.273438 3.046875 -13.648438 Z M 3.046875 -13.648438 "/></g></g></g><g fill="#fed012" fill-opacity="1"><g transform="translate(1.574774, 26.399674)"><g><path d="M 6.375 -14.640625 C 6.25 -14.265625 6.148438 -13.835938 6.078125 -13.359375 L 5.921875 -12.09375 L 5.828125 -11.140625 C 5.773438 -10.773438 5.71875 -10.453125 5.65625 -10.171875 L 5.625 -9.875 C 5.601562 -9.726562 5.671875 -9.65625 5.828125 -9.65625 C 5.941406 -9.65625 6.054688 -9.664062 6.171875 -9.6875 L 7.421875 -9.96875 C 7.691406 -10.03125 7.789062 -10.207031 7.71875 -10.5 L 7.59375 -10.921875 L 7.234375 -12 L 6.953125 -12.921875 L 6.65625 -13.859375 L 6.53125 -14.25 Z M 0.140625 -0.03125 L 0.15625 -0.46875 C 0.144531 -0.644531 0.15625 -0.84375 0.1875 -1.0625 C 0.21875 -1.300781 0.234375 -1.535156 0.234375 -1.765625 C 0.210938 -2.390625 0.285156 -3.316406 0.453125 -4.546875 L 0.609375 -5.921875 L 0.78125 -7.515625 L 0.9375 -9.09375 L 1.015625 -9.609375 L 1.09375 -10.140625 L 1.25 -11.765625 L 1.421875 -13.40625 L 1.53125 -14.28125 L 1.65625 -15.1875 L 1.875 -16.84375 C 1.96875 -17.5 2.019531 -18.046875 2.03125 -18.484375 L 2.0625 -18.8125 L 2.125 -19.125 L 2.328125 -20.8125 C 2.347656 -21.0625 2.453125 -21.21875 2.640625 -21.28125 C 2.898438 -21.375 3.117188 -21.566406 3.296875 -21.859375 L 3.375 -21.96875 L 3.453125 -22.0625 C 3.554688 -22.15625 3.644531 -22.164062 3.71875 -22.09375 C 3.8125 -22.03125 3.945312 -21.960938 4.125 -21.890625 L 4.34375 -21.8125 L 4.53125 -21.703125 C 4.695312 -21.585938 4.898438 -21.523438 5.140625 -21.515625 C 5.722656 -21.515625 6.160156 -21.1875 6.453125 -20.53125 C 6.816406 -19.707031 7.21875 -18.507812 7.65625 -16.9375 L 7.921875 -16.03125 L 8.15625 -15.125 L 8.296875 -14.734375 L 8.421875 -14.359375 L 8.671875 -13.59375 L 8.9375 -12.796875 C 9.144531 -12.160156 9.300781 -11.640625 9.40625 -11.234375 C 9.488281 -10.898438 9.617188 -10.5625 9.796875 -10.21875 L 9.984375 -9.75 L 10.140625 -9.28125 L 10.8125 -7.609375 L 10.890625 -7.453125 L 10.9375 -7.296875 C 10.957031 -7.023438 11.03125 -6.726562 11.15625 -6.40625 L 11.3125 -6.015625 L 11.5 -5.59375 C 11.65625 -5.257812 11.820312 -4.859375 12 -4.390625 L 12.4375 -3.171875 C 12.582031 -2.796875 12.753906 -2.382812 12.953125 -1.9375 C 13.066406 -1.664062 13.144531 -1.378906 13.1875 -1.078125 C 13.207031 -0.953125 13.207031 -0.820312 13.1875 -0.6875 C 13.144531 -0.34375 12.953125 -0.144531 12.609375 -0.09375 C 12.453125 -0.0625 12.332031 -0.109375 12.25 -0.234375 L 11.9375 -0.671875 L 11.609375 -1.109375 C 11.359375 -1.453125 11.171875 -1.765625 11.046875 -2.046875 L 10.515625 -3.109375 L 10.015625 -4.171875 C 9.640625 -4.992188 9.335938 -5.726562 9.109375 -6.375 L 8.765625 -7.359375 L 8.40625 -8.34375 L 8.375 -8.484375 L 8.3125 -8.625 C 8.25 -8.78125 8.125 -8.847656 7.9375 -8.828125 C 7.207031 -8.722656 6.625 -8.703125 6.1875 -8.765625 C 5.882812 -8.804688 5.6875 -8.785156 5.59375 -8.703125 C 5.5 -8.617188 5.425781 -8.425781 5.375 -8.125 L 4.546875 -2.921875 L 4.421875 -2.28125 L 4.109375 -0.96875 C 3.953125 -0.164062 3.71875 0.460938 3.40625 0.921875 C 3.320312 1.046875 3.257812 1.21875 3.21875 1.4375 C 3.164062 1.726562 2.984375 1.988281 2.671875 2.21875 C 2.359375 2.4375 2.054688 2.535156 1.765625 2.515625 L 1.125 2.5 C 0.957031 2.507812 0.796875 2.460938 0.640625 2.359375 L 0.453125 2.21875 L 0.265625 2.046875 C 0.0859375 1.878906 0.0078125 1.632812 0.03125 1.3125 Z M 0.140625 -0.03125 "/></g></g></g><g fill="#fed012" fill-opacity="1"><g transform="translate(17.327803, 26.399674)"><g><path d="M 0.25 -14.546875 C 0.21875 -15.078125 0.164062 -15.523438 0.09375 -15.890625 C 0.03125 -16.242188 0.132812 -16.5 0.40625 -16.65625 C 0.519531 -16.707031 0.648438 -16.75 0.796875 -16.78125 L 0.984375 -16.8125 L 1.15625 -16.84375 L 1.484375 -16.890625 L 1.8125 -16.953125 C 2.082031 -16.992188 2.304688 -17.015625 2.484375 -17.015625 C 2.992188 -17.003906 3.394531 -16.785156 3.6875 -16.359375 C 3.75 -16.253906 3.820312 -16.238281 3.90625 -16.3125 L 3.984375 -16.4375 L 4.078125 -16.546875 C 5.140625 -17.578125 6.273438 -18.070312 7.484375 -18.03125 C 8.109375 -18 8.675781 -17.710938 9.1875 -17.171875 C 10.851562 -15.390625 11.5 -13.359375 11.125 -11.078125 C 11.101562 -10.929688 11.039062 -10.832031 10.9375 -10.78125 C 10.75 -10.71875 10.460938 -10.789062 10.078125 -11 C 9.710938 -11.195312 9.472656 -11.390625 9.359375 -11.578125 C 9.066406 -12.054688 8.769531 -12.769531 8.46875 -13.71875 L 8.125 -14.8125 C 7.96875 -15.21875 7.8125 -15.566406 7.65625 -15.859375 C 7.207031 -16.691406 6.519531 -17.046875 5.59375 -16.921875 C 5.3125 -16.878906 5.03125 -16.585938 4.75 -16.046875 C 4.488281 -15.515625 4.40625 -15.085938 4.5 -14.765625 C 5.300781 -12.296875 5.722656 -9.773438 5.765625 -7.203125 L 5.8125 -6.03125 L 5.84375 -4.875 C 5.851562 -3.96875 5.816406 -3.1875 5.734375 -2.53125 C 5.660156 -1.914062 5.519531 -1.460938 5.3125 -1.171875 C 5.175781 -0.992188 5.070312 -0.753906 5 -0.453125 L 4.90625 -0.078125 L 4.8125 0.3125 C 4.6875 0.726562 4.46875 0.863281 4.15625 0.71875 C 3.988281 0.632812 3.785156 0.570312 3.546875 0.53125 L 2.90625 0.40625 C 2.394531 0.300781 1.992188 0.125 1.703125 -0.125 C 1.410156 -0.375 1.234375 -0.789062 1.171875 -1.375 C 0.992188 -2.96875 0.832031 -4.941406 0.6875 -7.296875 L 0.5 -10.234375 L 0.328125 -13.203125 Z M 0.25 -14.546875 "/></g></g></g><g fill="#fed012" fill-opacity="1"><g transform="translate(31.278578, 26.399674)"><g><path d="M 13.46875 -3.953125 C 13.289062 -2.160156 12.984375 -0.546875 12.546875 0.890625 L 12.5 1.015625 L 12.4375 1.15625 C 12.40625 1.269531 12.4375 1.347656 12.53125 1.390625 C 12.601562 1.421875 12.671875 1.398438 12.734375 1.328125 L 12.8125 1.203125 L 12.890625 1.09375 L 12.984375 1 L 13.109375 0.921875 L 13.125 1.078125 L 13.109375 1.21875 C 12.722656 2.132812 12.128906 2.851562 11.328125 3.375 C 10.429688 3.945312 9.515625 4.125 8.578125 3.90625 C 4.828125 3 2.78125 0.460938 2.4375 -3.703125 C 2.132812 -7.503906 2.0625 -11.179688 2.21875 -14.734375 C 2.238281 -15.066406 2.03125 -15.21875 1.59375 -15.1875 L 0.6875 -15.09375 L -0.203125 -15.015625 C -0.890625 -14.953125 -1.484375 -14.9375 -1.984375 -14.96875 L -2.1875 -14.984375 L -2.40625 -15 C -2.5625 -15.039062 -2.644531 -15.125 -2.65625 -15.25 C -2.664062 -15.351562 -2.597656 -15.4375 -2.453125 -15.5 L -2.25 -15.5625 L -2.0625 -15.625 C -0.59375 -15.976562 0.644531 -16.1875 1.65625 -16.25 C 2.132812 -16.269531 2.390625 -16.523438 2.421875 -17.015625 C 2.554688 -19.492188 2.757812 -21.644531 3.03125 -23.46875 L 3.0625 -23.84375 L 3.078125 -24.25 C 3.128906 -24.539062 3.269531 -24.679688 3.5 -24.671875 L 4.140625 -24.6875 C 4.410156 -24.6875 4.628906 -24.671875 4.796875 -24.640625 C 5.285156 -24.578125 5.648438 -24.335938 5.890625 -23.921875 C 6.222656 -23.359375 6.472656 -22.671875 6.640625 -21.859375 L 6.796875 -20.78125 L 6.921875 -19.6875 C 7.054688 -18.664062 7.164062 -17.6875 7.25 -16.75 C 7.28125 -16.4375 7.476562 -16.28125 7.84375 -16.28125 L 8.890625 -16.28125 L 9.953125 -16.296875 C 10.753906 -16.285156 11.453125 -16.207031 12.046875 -16.0625 L 12.1875 -16.03125 L 12.34375 -16.015625 C 12.457031 -15.992188 12.539062 -15.929688 12.59375 -15.828125 L 12.296875 -15.734375 L 12.015625 -15.640625 L 8.0625 -15.234375 C 7.65625 -15.191406 7.453125 -14.988281 7.453125 -14.625 L 7.40625 -8.25 L 7.390625 -1.890625 C 7.398438 -1.429688 7.453125 -0.863281 7.546875 -0.1875 L 7.65625 0.6875 L 7.78125 1.53125 L 7.828125 1.71875 L 7.890625 1.890625 C 8.191406 2.796875 8.648438 2.914062 9.265625 2.25 C 11.191406 0.15625 12.398438 -2.203125 12.890625 -4.828125 L 12.890625 -5.015625 L 12.921875 -5.203125 C 12.960938 -5.335938 13.039062 -5.40625 13.15625 -5.40625 C 13.300781 -5.394531 13.367188 -5.320312 13.359375 -5.1875 L 13.328125 -5.015625 L 13.328125 -4.84375 L 13.40625 -4.359375 Z M 13.46875 -3.953125 "/></g></g></g><g fill="#fed012" fill-opacity="1"><g transform="translate(47.418757, 26.399674)"><g><path d="M 4.078125 -13.625 C 4.054688 -12.988281 4.113281 -12.5625 4.25 -12.34375 C 4.382812 -12.125 4.71875 -11.914062 5.25 -11.71875 L 6.28125 -11.328125 C 6.664062 -11.191406 7 -11.054688 7.28125 -10.921875 C 8.019531 -10.566406 8.601562 -10.144531 9.03125 -9.65625 C 9.8125 -8.789062 10.320312 -7.863281 10.5625 -6.875 C 10.832031 -5.726562 10.6875 -4.675781 10.125 -3.71875 L 9.65625 -2.921875 C 9.476562 -2.617188 9.304688 -2.363281 9.140625 -2.15625 C 8.710938 -1.601562 8.226562 -1.207031 7.6875 -0.96875 C 7.351562 -0.820312 7.085938 -0.757812 6.890625 -0.78125 C 4.492188 -1 2.820312 -1.742188 1.875 -3.015625 L 0.875 -4.296875 C 0.5 -4.804688 0.25 -5.289062 0.125 -5.75 L 0.0625 -5.890625 L 0.03125 -6.046875 C 0.0078125 -6.160156 0.0390625 -6.238281 0.125 -6.28125 C 0.195312 -6.3125 0.265625 -6.28125 0.328125 -6.1875 L 0.40625 -6.0625 L 0.46875 -5.921875 C 0.675781 -5.546875 1.007812 -5.207031 1.46875 -4.90625 L 2.09375 -4.546875 L 2.71875 -4.203125 C 3.007812 -4.015625 3.28125 -4.019531 3.53125 -4.21875 L 4.171875 -4.71875 C 4.410156 -4.90625 4.609375 -5.085938 4.765625 -5.265625 C 5.179688 -5.703125 5.457031 -6.171875 5.59375 -6.671875 C 5.800781 -7.453125 5.539062 -8.050781 4.8125 -8.46875 L 4.359375 -8.734375 L 3.890625 -8.984375 C 3.523438 -9.191406 3.234375 -9.382812 3.015625 -9.5625 C 1.253906 -11.007812 0.359375 -12.507812 0.328125 -14.0625 C 0.316406 -14.6875 0.515625 -15.296875 0.921875 -15.890625 C 1.359375 -16.523438 1.878906 -16.894531 2.484375 -17 L 2.984375 -17.109375 L 3.484375 -17.28125 C 3.890625 -17.40625 4.238281 -17.453125 4.53125 -17.421875 C 5.601562 -17.328125 6.453125 -16.9375 7.078125 -16.25 C 7.710938 -15.539062 8.019531 -14.628906 8 -13.515625 C 8 -13.398438 7.984375 -13.3125 7.953125 -13.25 C 7.921875 -13.15625 7.851562 -13.097656 7.75 -13.078125 C 7.664062 -13.066406 7.59375 -13.097656 7.53125 -13.171875 L 7.453125 -13.265625 L 7.390625 -13.359375 L 6.9375 -14.265625 C 6.757812 -14.640625 6.601562 -14.9375 6.46875 -15.15625 C 6.101562 -15.78125 5.773438 -16.09375 5.484375 -16.09375 C 5.191406 -16.082031 4.875 -15.765625 4.53125 -15.140625 L 4.328125 -14.765625 L 4.15625 -14.390625 C 4.039062 -14.109375 4.015625 -13.851562 4.078125 -13.625 Z M 4.078125 -13.625 "/></g></g></g></g></g></svg>